# xmcd
#
# Track frame offsets: 
#        150
#        17185
#        46310
#        64992
#        87077
#        108555
#        128970
#        143030
#        161882
#        176460
#        192037
#        208810
#        254760
#
# Disc length: 3400 seconds
#
# Revision: 9
# Processed by: cddbd v1.5.2PL0 Copyright (c) Steve Scherf et al.
# Submitted via: ExactAudioCopy v1.0b3
#
DISCID=c00d460d
DTITLE=Lovett, Lyle - The Road To Ensenada
DYEAR=1996
DGENRE=New Country
TTITLE0=Don't Touch My Hat
TTITLE1=Her First Mistake
TTITLE2=Fiona
TTITLE3=That's Right (You're Not From Texas)
TTITLE4=Who Loves You Better
TTITLE5=Private Conversation
TTITLE6=Promises
TTITLE7=It Ought To Be Easier
TTITLE8=I Can't Love You Anymore
TTITLE9=Long Tall Texan
TTITLE10=Christmas Morning
TTITLE11=The Road To Ensenada
TTITLE12=The Girl In The Corner (Hidden Track)
EXTD=YEAR: 1996 ID3G: 2
EXTT0=
EXTT1=
EXTT2=
EXTT3=
EXTT4=
EXTT5=
EXTT6=
EXTT7=
EXTT8=
EXTT9=
EXTT10=
EXTT11=
EXTT12=
PLAYORDER=
